# xmcd CD database file
#
# Track frame offsets:
#	150
#	19129
#	40658
#	57950
#	87110
#	107498
#	128902
#	147532
#	167619
#	187936
#	206154
#	222621
#
# Disc length: 3321 seconds
#
# Revision: 3
# Processed by: cddbd v1.5.1PL2 Copyright (c) Steve Scherf et al.
# Submitted via: Feurio! 1.68 - http://www.feurio.com
#
DISCID=aa0cf70c
DTITLE=Various Artist - L'été des abonnés
DYEAR=2006
DGENRE=world, jazz, chanson
TTITLE0=The Congos - Fisherman (version edit)
TTITLE1=Ali Farka Touré - Beto
TTITLE2=Bïa - Coeur vagabond
TTITLE3=Mandekalou - Kanimba
TTITLE4=Mamani Keita - Djekafo
TTITLE5=Roland Brival - Damballa
TTITLE6=Michel Camilo and Tomatito - Libertango
TTITLE7=Mayra Andrade - Dimokransa
TTITLE8=Akendengue - Bekelia
TTITLE9=Rodrigo y Gabriela - Vikingman
TTITLE10=Orchestra Baobab - Kelen Ati Leen
TTITLE11=Till Brönner - River Man
EXTD=inrockuptibles #555
EXTT0=
EXTT1=
EXTT2=
EXTT3=
EXTT4=
EXTT5=
EXTT6=
EXTT7=
EXTT8=
EXTT9=
EXTT10=
EXTT11=
PLAYORDER=
